<svg width="34" height="34" viewBox="0 0 34 34" fill="none" xmlns="http://www.w3.org/2000/svg">
<path d="M12.9835 11.8667L18.1168 17L12.9835 22.1333L15.3335 24.5L22.8335 17L15.3335 9.49999L12.9835 11.8667ZM0.333495 17C0.333496 26.2 7.80016 33.6667 17.0002 33.6667C26.2002 33.6667 33.6668 26.2 33.6668 17C33.6668 7.79999 26.2002 0.333323 17.0002 0.333324C7.80016 0.333324 0.333495 7.79999 0.333495 17ZM30.3335 17C30.3335 24.3667 24.3668 30.3333 17.0002 30.3333C9.6335 30.3333 3.66683 24.3667 3.66683 17C3.66683 9.63332 9.63349 3.66666 17.0002 3.66666C24.3668 3.66666 30.3335 9.63332 30.3335 17Z" fill="white"/>
</svg>
