<svg width="24" height="34" viewBox="0 0 24 34" fill="none" xmlns="http://www.w3.org/2000/svg">
<path d="M12.0002 0.333344C5.55016 0.333344 0.333496 5.55001 0.333496 12C0.333496 20.75 12.0002 33.6667 12.0002 33.6667C12.0002 33.6667 23.6668 20.75 23.6668 12C23.6668 5.55001 18.4502 0.333344 12.0002 0.333344ZM12.0002 16.1667C10.8951 16.1667 9.83529 15.7277 9.05388 14.9463C8.27248 14.1649 7.8335 13.1051 7.8335 12C7.8335 10.8949 8.27248 9.83513 9.05388 9.05373C9.83529 8.27233 10.8951 7.83334 12.0002 7.83334C13.1052 7.83334 14.165 8.27233 14.9464 9.05373C15.7278 9.83513 16.1668 10.8949 16.1668 12C16.1668 13.1051 15.7278 14.1649 14.9464 14.9463C14.165 15.7277 13.1052 16.1667 12.0002 16.1667Z" fill="#17A90B"/>
</svg>
