<svg width="30" height="34" viewBox="0 0 30 34" fill="none" xmlns="http://www.w3.org/2000/svg">
<path d="M25 25.3333H5V22H25V25.3333ZM25 18.6667H5V15.3333H25V18.6667ZM25 12H5V8.66666H25V12ZM0 33.6667L2.5 31.1667L5 33.6667L7.5 31.1667L10 33.6667L12.5 31.1667L15 33.6667L17.5 31.1667L20 33.6667L22.5 31.1667L25 33.6667L27.5 31.1667L30 33.6667V0.333328L27.5 2.83333L25 0.333328L22.5 2.83333L20 0.333328L17.5 2.83333L15 0.333328L12.5 2.83333L10 0.333328L7.5 2.83333L5 0.333328L2.5 2.83333L0 0.333328V33.6667Z" fill="#17A90B"/>
</svg>
